<svg xmlns="http://www.w3.org/2000/svg" xmlns:xlink="http://www.w3.org/1999/xlink" width="50" height="40" viewBox="0 0 51 54" version="1.1">
    <!-- Generator: Sketch 63.1 (92452) - https://sketch.com -->
    <title>social-media (1)</title>
    <desc>Created with Sketch.</desc>
    <g id="Page-1" stroke="none" stroke-width="1" fill="none" fill-rule="evenodd">
        <g id="social-media-(1)" fill="#FFFFFF" fill-rule="nonzero">
            <path d="M44.751,-3.50392718e-07 L42.429,-3.50392718e-07 C41.9921428,-3.50392718e-07 41.638,0.354142763 41.638,0.791 C41.638,1.22785724 41.9921428,1.582 42.429,1.582 L44.751,1.582 C47.1471056,1.58088516 49.0922833,3.5189066 49.1,5.915 L49.1,24.224 C49.0922824,26.6199317 47.1469435,28.5576663 44.751,28.556 L42.117,28.556 C41.9435609,28.5568644 41.7751004,28.6140708 41.637,28.719 L36.805,32.419 L36.805,29.347 C36.805,28.9101428 36.4508572,28.556 36.014,28.556 L26.386,28.556 C25.6071544,28.558754 24.8419716,28.351481 24.171,27.956 L24.171,19.072 C24.1691955,17.466733 23.3693208,15.9674365 22.037,15.072 L22.037,5.915 C22.0441675,3.51867752 23.9896674,1.58033512 26.386,1.582 L37.472,1.582 C37.9088572,1.582 38.263,1.22785724 38.263,0.791 C38.263,0.354142763 37.9088572,-3.50392718e-07 37.472,-3.50392718e-07 L26.386,-3.50392718e-07 C23.1161826,-0.00111210644 20.4627207,2.64519156 20.455,5.915 L20.455,14.374 C20.0855779,14.2851298 19.7069613,14.2401523 19.327,14.24 L4.844,14.24 C2.17341197,14.2399918 0.00661582501,16.4014202 0,19.072 L0,20.78 C0.0151511555,21.2061894 0.365041375,21.5438619 0.7915,21.5438619 C1.21795862,21.5438619 1.56784884,21.2061894 1.583,20.78 L1.583,19.072 C1.58796269,17.2748388 3.04683232,15.8208903 4.844,15.822 L19.327,15.822 C21.1243308,15.8208889 22.5834871,17.2746773 22.589,19.072 L22.589,28.272 C22.5795013,28.3413429 22.5795013,28.4116571 22.589,28.481 L22.589,33.51 C22.589,33.61 22.583,33.71 22.574,33.81 L20.942,33.81 C19.1741545,33.8110379 17.6581336,35.0719369 17.335,36.81 C17.2631859,36.8381591 17.195822,36.8765565 17.135,36.924 L13.596,39.657 L13.596,37.55 C13.596,37.1131428 13.2418572,36.759 12.805,36.759 L4.844,36.759 C3.04699436,36.7606616 1.58796334,35.3069996 1.583,33.51 L1.583,25.527 C1.56784884,25.1008106 1.21795862,24.7631381 0.7915,24.7631381 C0.365041375,24.7631381 0.0151511555,25.1008106 0,25.527 L0,33.51 C0.00661582501,36.1805798 2.17341197,38.3420082 4.844,38.342 L12.009,38.342 L12.009,41.267 C12.0155645,41.5657045 12.1880325,41.8358585 12.4562271,41.9675367 C12.7244216,42.099215 13.0436427,42.0704708 13.284,41.893 L17.275,38.812 L17.275,47.712 C17.2794105,49.7342653 18.91973,51.3714535 20.942,51.372 L25.8,51.372 L25.8,53.217 C25.8068274,53.5153485 25.9791483,53.7850949 26.2469879,53.916702 C26.5148274,54.0483092 26.8336538,54.0198959 27.074,53.843 L30.274,51.372 L31.221,51.372 C33.24327,51.3714535 34.8835895,49.7342653 34.888,47.712 L34.888,46.312 C34.888,45.8751428 34.5338572,45.521 34.097,45.521 C33.6601428,45.521 33.306,45.8751428 33.306,46.312 L33.306,47.712 C33.302692,48.861008 32.3700126,49.7905561 31.221,49.79 L30,49.79 C29.8252577,49.7895288 29.6553282,49.8472275 29.517,49.954 L27.375,51.607 L27.375,50.58 C27.3752654,50.3700405 27.2920454,50.1685896 27.1436753,50.020032 C26.9953053,49.8714744 26.7939596,49.7879998 26.584,49.788 L20.942,49.788 C19.7931494,49.7891078 18.8603087,48.8598463 18.857,47.711 L18.857,37.465 C18.8614077,36.3167737 19.7937654,35.3884406 20.942,35.389 L31.22,35.389 C32.3682346,35.3884406 33.3005923,36.3167737 33.305,37.465 L33.305,41.349 C33.305,41.7858572 33.6591428,42.14 34.096,42.14 C34.5328572,42.14 34.887,41.7858572 34.887,41.349 L34.887,37.465 C34.8820381,35.4432874 33.2417187,33.8069939 31.22,33.807 L24.162,33.807 C24.168,33.707 24.171,29.712 24.171,29.712 C24.8750839,29.9951789 25.627104,30.1401507 26.386,30.139 L35.223,30.139 L35.223,34.016 C35.2292608,34.3141789 35.4008694,34.5841188 35.6682134,34.7163196 C35.9355575,34.8485204 36.2542443,34.8210301 36.495,34.645 L42.386,30.139 L44.751,30.139 C48.0208174,30.1401121 50.6742793,27.4938084 50.682,24.224 L50.682,5.915 C50.6737296,2.64542046 48.0205899,-0.000561824258 44.751,-3.50392718e-07" id="Path"></path>
            <path d="M37.545,5.845 C37.0595452,5.73026982 36.5482473,5.84145565 36.1542767,6.14742391 C35.7603061,6.45339217 35.526012,6.92125341 35.517,7.42 C35.5180983,8.5541747 35.1044636,9.64961312 34.354,10.5 L32.174,12.967 C32.0284064,12.7422703 31.7787702,12.6067212 31.511,12.607 L27.256,12.607 C26.8191428,12.607 26.465,12.9611428 26.465,13.398 L26.465,22.972 C26.465,23.1817862 26.5483373,23.3829802 26.6966785,23.5313215 C26.8450198,23.6796627 27.0462138,23.763 27.256,23.763 L31.511,23.763 C31.8203956,23.7628697 32.1013134,23.5823635 32.23,23.301 C33.0958534,23.8298093 34.0904367,24.1103683 35.105,24.112 L42.626,24.112 C43.1832747,24.104813 43.7141328,23.873324 44.0986002,23.4698496 C44.4830675,23.0663753 44.6886912,22.524973 44.669,21.968 C44.646,21.461 44.669,14.645 44.669,14.493 C44.6684497,13.3645864 43.7544126,12.4496544 42.626,12.448 L38.716,12.436 L38.878,12.053 C39.6167397,10.2882418 39.4963536,8.28082215 38.552,6.617 C38.3351807,6.23329564 37.9704585,5.95532599 37.543,5.848 L37.543,5.848 M30.72,22.178 L28.047,22.178 L28.047,14.186 L30.72,14.186 L30.72,22.178 Z M42.626,14.027 C42.8817078,14.027 43.089,14.2342922 43.089,14.49 C43.089,14.641 43.089,15.049 43.089,15.603 C43.077,18.662 43.069,21.558 43.089,22.039 C43.0950039,22.1657448 43.0489526,22.2894382 42.9615246,22.3813981 C42.8740966,22.4733581 42.7528863,22.5255964 42.626,22.526 L35.1,22.526 C34.2011262,22.5246469 33.3296809,22.2162894 32.63,21.652 L32.297,21.382 L32.297,15.208 L35.535,11.545 C36.5420472,10.4067361 37.0985945,8.93979831 37.1,7.42 C37.1018161,7.40112949 37.1152639,7.38542099 37.1336289,7.38071775 C37.151994,7.37601451 37.171337,7.38332536 37.182,7.399 C37.8830252,8.63405508 37.9720325,10.1242822 37.423,11.434 L36.8,12.913 C36.6959303,13.1569379 36.7212058,13.4368191 36.8672945,13.6581656 C37.0133833,13.8795121 37.2607903,14.0127865 37.526,14.013 L42.626,14.027 Z" id="Shape"></path>
            <path d="M6.774,27.479 C6.33714276,27.479 5.983,27.8331428 5.983,28.27 C5.983,28.7068572 6.33714276,29.061 6.774,29.061 L9.106,29.061 L8.671,31.694 C8.5993217,32.1255191 8.8906042,32.5335831 9.322,32.606 C9.36505698,32.6122725 9.40849025,32.6156135 9.452,32.616 C9.83876301,32.6153856 10.1685166,32.3355178 10.232,31.954 L10.71,29.061 L12.619,29.061 L12.183,31.7 C12.1486076,31.9070077 12.1978812,32.1191982 12.3199754,32.2898676 C12.4420697,32.460537 12.6269775,32.5756968 12.834,32.61 C12.877057,32.6162725 12.9204902,32.6196135 12.964,32.62 C13.3509152,32.6197994 13.6809001,32.3397352 13.744,31.958 L14.222,29.066 L17.4,29.066 C17.8261894,29.0508488 18.1638619,28.7009586 18.1638619,28.2745 C18.1638619,27.8480414 17.8261894,27.4981512 17.4,27.483 L14.484,27.483 L14.803,25.553 L17.4,25.553 C17.8368572,25.553 18.191,25.1988572 18.191,24.762 C18.191,24.3251428 17.8368572,23.971 17.4,23.971 L15.064,23.971 L15.5,21.336 C15.5712447,20.9049418 15.2795582,20.4977448 14.8485,20.4265 C14.4174418,20.3552553 14.0102447,20.6469418 13.939,21.078 L13.461,23.971 L11.552,23.971 L11.988,21.336 C12.0340873,21.0571542 11.9279112,20.7749028 11.7094673,20.5955672 C11.4910234,20.4162315 11.1934984,20.367057 10.9289673,20.4665672 C10.6644361,20.5660773 10.4730873,20.7991542 10.427,21.078 L9.949,23.97 L6.774,23.97 C6.3478106,23.9851512 6.01013805,24.3350414 6.01013805,24.7615 C6.01013805,25.1879586 6.3478106,25.5378488 6.774,25.553 L9.687,25.553 L9.368,27.483 L6.774,27.479 Z M11.291,25.549 L13.2,25.549 L12.881,27.479 L10.972,27.479 L11.291,25.549 Z" id="Shape"></path>
            <path d="M26.071,39.472 C25.4187693,38.9342545 24.5495778,38.7389556 23.73,38.946 C22.390922,39.2966069 21.4771623,40.5329924 21.535,41.916 C21.532296,42.9630764 21.9523641,43.9669128 22.7,44.7 C23.5865934,45.5456994 24.60149,46.245698 25.707,46.774 C25.9384153,46.8966705 26.2155847,46.8966705 26.447,46.774 C28.954,45.445 30.623,44.111 30.623,41.92 C30.6721121,40.5173331 29.7183248,39.2773677 28.35,38.965 C27.5509287,38.7726416 26.7078234,38.9613525 26.067,39.476 M29.04,41.92 C29.04,43.102 28.256,43.976 26.077,45.176 C23.897,43.976 23.114,43.102 23.114,41.92 C23.0518112,41.2664652 23.4673986,40.6624726 24.1,40.487 C24.1910438,40.4650911 24.2843572,40.4540143 24.378,40.4539661 C24.8077655,40.4506186 25.1993988,40.700089 25.378,41.091 C25.516227,41.3592366 25.7950267,41.5254595 26.0967256,41.5195105 C26.3984244,41.5135615 26.6704547,41.3364772 26.798,41.063 C27.0118166,40.6059486 27.5257441,40.371652 28.011,40.51 C28.6571688,40.6590705 29.096657,41.2589528 29.044,41.92" id="Shape"></path>
        </g>
    </g>
</svg>